<svg width="39" height="39" viewBox="0 0 39 39" fill="none" xmlns="http://www.w3.org/2000/svg">
<path fill-rule="evenodd" clip-rule="evenodd" d="M19.5229 38.7485C9.02988 38.7485 0.522949 30.2416 0.522949 19.7485C0.522949 9.25484 9.02988 0.748535 19.5229 0.748535C30.016 0.748535 38.5229 9.25484 38.5229 19.7485C38.5229 30.2416 30.016 38.7485 19.5229 38.7485Z" fill="#3C599B"/>
<path d="M24.3437 16.0928H21.0601V13.9392C21.0601 13.1305 21.5961 12.9419 21.9736 12.9419C22.3503 12.9419 24.2908 12.9419 24.2908 12.9419V9.38648L21.0996 9.37402C17.5571 9.37402 16.7509 12.0258 16.7509 13.7227V16.0928H14.7021V19.7564H16.7509C16.7509 24.4582 16.7509 30.1234 16.7509 30.1234H21.0601C21.0601 30.1234 21.0601 24.4024 21.0601 19.7564H23.9678L24.3437 16.0928Z" fill="white"/>
</svg>
